<svg width="105" height="105" viewBox="0 0 105 105" fill="none" xmlns="http://www.w3.org/2000/svg">
  <path d="M104.446 1.42346C104.403 1.21617 104.302 1.02538 104.155 0.873449C104.008 0.721518 103.82 0.614745 103.614 0.565645C89.8867 -2.79061 58.1687 9.16955 40.9843 26.3469C37.9194 29.3871 35.1252 32.6887 32.6336 36.2141C27.3344 35.7453 22.0351 36.1367 17.5187 38.1055C4.77576 43.7141 1.0656 58.3485 0.0320112 64.6438C-0.0266161 64.9883 -0.00450186 65.3418 0.096614 65.6764C0.19773 66.011 0.37509 66.3175 0.614745 66.5719C0.8544 66.8264 1.14981 67.0217 1.47775 67.1426C1.80569 67.2635 2.15721 67.3067 2.50467 67.2688L22.9679 65.0117C22.9826 66.5545 23.0756 68.0956 23.2469 69.6289C23.3498 70.6937 23.8225 71.6888 24.5828 72.4414L32.507 80.3469C33.2603 81.1062 34.255 81.5787 35.3195 81.6828C36.8443 81.8534 38.3767 81.9465 39.9109 81.9617L37.6656 102.399C37.6282 102.747 37.6717 103.098 37.7928 103.426C37.9138 103.753 38.1092 104.049 38.3635 104.288C38.6178 104.528 38.9241 104.705 39.2585 104.806C39.5928 104.908 39.9461 104.93 40.2906 104.872C46.5742 103.864 61.2343 100.154 66.8101 87.411C68.7789 82.8946 69.182 77.6211 68.7273 72.3477C72.2613 69.8559 75.5715 67.0609 78.6203 63.9946C95.8586 46.843 107.751 15.8328 104.446 1.42346ZM61.4218 43.5336C59.8478 41.9606 58.7756 39.956 58.3409 37.7735C57.9062 35.591 58.1286 33.3287 58.9798 31.2726C59.8311 29.2165 61.273 27.459 63.1233 26.2225C64.9735 24.986 67.1488 24.3261 69.3742 24.3261C71.5995 24.3261 73.7749 24.986 75.6251 26.2225C77.4753 27.459 78.9173 29.2165 79.7685 31.2726C80.6198 33.3287 80.8422 35.591 80.4075 37.7735C79.9728 39.956 78.9006 41.9606 77.3265 43.5336C76.2828 44.5789 75.0431 45.4081 73.6786 45.9739C72.3141 46.5397 70.8514 46.8309 69.3742 46.8309C67.897 46.8309 66.4343 46.5397 65.0698 45.9739C63.7052 45.4081 62.4656 44.5789 61.4218 43.5336Z" fill="#FE9E45"/>
  <path d="M31.968 86.0726C30.6836 87.3593 28.6235 87.8609 26.1438 88.2898C20.5727 89.239 15.6532 84.4249 16.654 78.7929C17.036 76.6577 18.1657 73.6648 18.8688 72.9617C19.0225 72.8109 19.1248 72.6156 19.1612 72.4035C19.1975 72.1913 19.1661 71.9731 19.0714 71.7798C18.9767 71.5865 18.8235 71.4279 18.6336 71.3266C18.4436 71.2254 18.2266 71.1865 18.0133 71.2156C14.8979 71.5967 11.9996 73.0092 9.77974 75.2281C4.26958 80.7429 3.74927 101.206 3.74927 101.206C3.74927 101.206 24.2243 100.686 29.7344 95.171C31.9602 92.953 33.3744 90.0502 33.7493 86.9304C33.836 85.9507 32.643 85.3671 31.968 86.0726Z" fill="#FE9E45"/>
</svg>