<svg width="120" height="120" viewBox="0 0 120 120" fill="none" xmlns="http://www.w3.org/2000/svg">
<path d="M119.636 75.0013C119.792 76.4062 119.87 77.655 119.87 78.7477C119.87 79.8404 119.792 81.0891 119.636 82.494H112.143C111.909 84.3672 111.558 86.2404 111.089 88.1135L117.997 91.0404C117.294 93.3038 116.358 95.6062 115.187 97.9477L108.163 95.0208C107.304 96.6599 106.25 98.2599 105.002 99.8208L110.27 105.089C108.709 107.04 106.953 108.796 105.002 110.357L99.7333 105.089C98.1724 106.338 96.5724 107.392 94.9333 108.25L97.8602 115.157C95.5187 116.406 93.2163 117.382 90.9529 118.084L88.026 111.177C86.1528 111.645 84.2797 111.996 82.4065 112.231V119.723C81.0016 119.879 79.7528 119.957 78.6602 119.957C77.5675 119.957 76.3187 119.879 74.9138 119.723V112.231C73.0407 111.996 71.1675 111.645 69.2943 111.177L66.4846 118.084C64.1431 117.382 61.8016 116.406 59.4602 115.157L62.387 108.25C60.748 107.392 59.187 106.338 57.7041 105.089L52.3187 110.357C50.3675 108.796 48.6114 107.04 47.0504 105.089L52.3187 99.8208C51.148 98.2599 50.0943 96.6599 49.1577 95.0208L42.2504 97.9477C41.0016 95.6062 40.026 93.3038 39.3236 91.0404L46.348 88.1135C45.8016 86.2404 45.4114 84.3672 45.1772 82.494H37.6846C37.5285 81.0891 37.4504 79.8404 37.4504 78.7477C37.4504 77.655 37.5285 76.4062 37.6846 75.0013H45.1772C45.4114 73.1282 45.8016 71.255 46.348 69.3818L39.3236 66.455C40.026 64.1916 41.0016 61.8891 42.2504 59.5477L49.1577 62.4745C50.0943 60.8355 51.148 59.2355 52.3187 57.6745L47.0504 52.4062C48.6114 50.455 50.3675 48.6989 52.3187 47.1379L57.7041 52.4062C59.187 51.1574 60.748 50.1038 62.387 49.2452L59.4602 42.2208C61.8016 41.0501 64.1431 40.1135 66.4846 39.4111L69.2943 46.3184C71.1675 45.7721 73.0407 45.4208 74.9138 45.2647V37.7721C76.3187 37.616 77.5675 37.5379 78.6602 37.5379C79.7528 37.5379 81.0016 37.616 82.4065 37.7721V45.2647C84.2797 45.4208 86.1528 45.7721 88.026 46.3184L90.9529 39.4111C93.2163 40.1135 95.5187 41.0501 97.8602 42.2208L94.9333 49.2452C96.5724 50.1818 98.1724 51.2355 99.7333 52.4062L105.002 47.1379C106.953 48.6989 108.709 50.455 110.27 52.4062L105.002 57.6745C106.25 59.2355 107.304 60.8355 108.163 62.4745L115.187 59.5477C116.358 61.8891 117.294 64.1916 117.997 66.455L111.089 69.3818C111.558 71.255 111.909 73.1282 112.143 75.0013H119.636ZM78.6602 60.016C73.5089 60.016 69.0992 61.8501 65.4309 65.5184C61.7626 69.1867 59.9285 73.5965 59.9285 78.7477C59.9285 83.8989 61.7626 88.3086 65.4309 91.9769C69.0992 95.6452 73.5089 97.4794 78.6602 97.4794C83.8114 97.4794 88.2211 95.6452 91.8894 91.9769C95.5577 88.3086 97.3919 83.8989 97.3919 78.7477C97.3919 73.5965 95.5577 69.1867 91.8894 65.5184C88.2211 61.8501 83.8114 60.016 78.6602 60.016ZM52.3187 34.9623L50.9138 38.5916C50.6797 39.0599 50.3089 39.4111 49.8016 39.6452C49.2943 39.8794 48.8065 39.8794 48.3382 39.6452L41.665 36.9525C40.3382 38.8257 38.7382 40.3867 36.865 41.6355L39.6748 48.3086C39.9089 48.855 39.9089 49.3623 39.6748 49.8306C39.4407 50.2989 39.0894 50.6501 38.6211 50.8843L34.9919 52.4062C34.5236 52.6404 34.0358 52.6404 33.5285 52.4062C33.0211 52.1721 32.6504 51.8208 32.4163 51.3526L29.6065 44.6794C28.3577 44.9135 27.226 45.0306 26.2114 45.0306C25.2748 45.0306 24.1821 44.9135 22.9333 44.6794L20.1236 51.3526C19.9675 51.8208 19.6358 52.1721 19.1285 52.4062C18.6211 52.6404 18.0943 52.6404 17.548 52.4062L14.0358 50.8843C13.4894 50.7282 13.1187 50.3965 12.9236 49.8891C12.7285 49.3818 12.7089 48.855 12.865 48.3086L15.6748 41.7525C13.8016 40.4257 12.2016 38.8257 10.8748 36.9525L4.20163 39.7623C3.73333 39.9184 3.24553 39.8989 2.73821 39.7038C2.23089 39.5086 1.86016 39.1769 1.62602 38.7086L0.221138 35.0794C-0.0130081 34.533 -0.0325203 34.0062 0.162602 33.4989C0.357724 32.9916 0.728455 32.6599 1.2748 32.5038L7.83089 29.694C7.59675 28.4452 7.47967 27.3135 7.47967 26.2989C7.47967 25.3623 7.59675 24.2306 7.83089 22.9038L1.15772 20.2111C0.689431 19.9769 0.357724 19.6257 0.162602 19.1574C-0.0325203 18.6891 -0.0520325 18.1818 0.104065 17.6355L1.62602 14.0062C1.86016 13.5379 2.21138 13.1867 2.67967 12.9525C3.14797 12.7184 3.65528 12.7184 4.20163 12.9525L10.8748 15.6452C12.1236 13.7721 13.6846 12.2111 15.5577 10.9623L12.865 4.28914C12.6309 3.74279 12.6114 3.23548 12.8065 2.76718C13.0016 2.29889 13.3724 1.94767 13.9187 1.71353L17.548 0.191574C18.0163 -0.0425721 18.5041 -0.0425721 19.0114 0.191574C19.5187 0.425721 19.8894 0.77694 20.1236 1.24523L22.8163 7.9184C24.065 7.68426 25.1967 7.56718 26.2114 7.56718C27.226 7.56718 28.3577 7.68426 29.6065 7.9184L32.2992 1.24523C32.5333 0.698891 32.9041 0.32816 33.4114 0.133038C33.9187 -0.0620843 34.4065 -0.0425721 34.8748 0.191574L38.5041 1.71353C39.0504 1.86962 39.4211 2.20133 39.6163 2.70865C39.8114 3.21596 39.7919 3.70377 39.5577 4.17206L36.865 10.8452C38.7382 12.1721 40.3382 13.7721 41.665 15.6452L48.2211 12.8355C48.7675 12.6794 49.2943 12.6989 49.8016 12.894C50.3089 13.0891 50.6407 13.4208 50.7968 13.8891L52.3187 17.5184C52.5528 18.0647 52.5724 18.5916 52.3772 19.0989C52.1821 19.6062 51.8114 19.9379 51.265 20.094L44.5919 22.9038C44.826 24.1525 44.9431 25.2843 44.9431 26.2989C44.9431 27.3135 44.826 28.4452 44.5919 29.694L51.265 32.3867C51.8114 32.6208 52.1821 32.9721 52.3772 33.4404C52.5724 33.9086 52.5528 34.416 52.3187 34.9623ZM26.2699 15.0599C23.187 15.0599 20.5333 16.1525 18.3089 18.3379C16.0846 20.5233 14.9724 23.1769 14.9724 26.2989C14.9724 29.4208 16.0846 32.0745 18.3089 34.2599C20.5333 36.4452 23.187 37.5379 26.2699 37.5379C29.3528 37.5379 31.987 36.4452 34.1724 34.2599C36.3577 32.0745 37.4504 29.4208 37.4504 26.2989C37.4504 23.1769 36.3577 20.5233 34.1724 18.3379C31.987 16.1525 29.3528 15.0599 26.2699 15.0599Z" fill="#FE9E45"/>
</svg>
