<svg width="120" height="120" viewBox="0 0 120 120" fill="none" xmlns="http://www.w3.org/2000/svg">
<g clip-path="url(#clip0_1492_118)">
<path d="M108.867 94.6875L84.2578 73.9453C86.0547 70.1172 86.582 66.0742 85.8398 61.8164C85.0977 57.5586 83.2031 53.8672 80.1562 50.7422L68.0859 38.9062C65.6641 36.4844 63.1641 34.5313 60.5859 33.0469C58.0078 31.5625 56.0156 30.7031 54.6094 30.4688L52.5 30C52.5 30.3125 52.5781 30.7617 52.7344 31.3477C52.8906 31.9336 53.6133 33.2031 54.9023 35.1562C56.1914 37.1094 57.8906 39.1406 60 41.25L72.4219 56.7188C73.0469 57.1094 73.3008 58.0859 73.1836 59.6484C73.0664 61.2109 72.4219 62.5781 71.25 63.75L56.25 48.75C54.4531 46.9531 52.3047 45.4297 49.8047 44.1797C47.3047 42.9297 45.2734 42.1484 43.7109 41.8359L41.25 41.25C41.3281 41.875 41.4844 42.7344 41.7188 43.8281C41.9531 44.9219 42.7148 46.7969 44.0039 49.4531C45.293 52.1094 46.875 54.375 48.75 56.25L63.75 71.25C62.5 72.5 61.1523 73.2031 59.707 73.3594C58.2617 73.5156 57.2656 73.2031 56.7188 72.4219L41.25 60C38.9844 57.7344 36.9141 55.9766 35.0391 54.7266C33.1641 53.4766 31.875 52.8125 31.1719 52.7344L30 52.5C30.0781 53.0469 30.2344 53.8281 30.4688 54.8438C30.7031 55.8594 31.5625 57.7344 33.0469 60.4688C34.5313 63.2031 36.4844 65.7422 38.9062 68.0859L50.8594 80.0391C53.9062 83.1641 57.5586 85.0977 61.8164 85.8398C66.0742 86.582 70.0781 86.0547 73.8281 84.2578L94.8047 108.867C84.3359 116.289 72.7344 120 60 120C51.875 120 44.1016 118.418 36.6797 115.254C29.2578 112.09 22.8711 107.832 17.5195 102.48C12.168 97.1289 7.91016 90.7422 4.74609 83.3203C1.58203 75.8984 0 68.125 0 60C0 51.875 1.58203 44.1016 4.74609 36.6797C7.91016 29.2578 12.168 22.8711 17.5195 17.5195C22.8711 12.168 29.2578 7.91016 36.6797 4.74609C44.1016 1.58203 51.875 0 60 0C68.125 0 75.8984 1.58203 83.3203 4.74609C90.7422 7.91016 97.1289 12.168 102.48 17.5195C107.832 22.8711 112.09 29.2578 115.254 36.6797C118.418 44.1016 120 51.875 120 60C120 72.7344 116.289 84.2969 108.867 94.6875Z" fill="#FE9E45"/>
</g>
<defs>
<clipPath id="clip0_1492_118">
<rect width="120" height="120" fill="white"/>
</clipPath>
</defs>
</svg>
