<svg width="204" height="60" viewBox="0 0 204 60" fill="none" xmlns="http://www.w3.org/2000/svg">
<rect width="60" height="60" rx="5" fill="white"/>
<path d="M40.348 29.172C41.852 29.684 43.02 30.516 43.852 31.668C44.684 32.82 45.1 34.26 45.1 35.988C45.1 39.38 43.788 41.988 41.164 43.812C38.572 45.604 35.02 46.5 30.508 46.5H14.332L21.052 12.9H35.932C39.324 12.9 41.932 13.54 43.756 14.82C45.612 16.068 46.54 17.892 46.54 20.292C46.54 22.468 45.964 24.324 44.812 25.86C43.692 27.364 42.204 28.468 40.348 29.172ZM25.036 16.788L22.876 27.54H32.716C35.436 27.54 37.58 26.996 39.148 25.908C40.748 24.788 41.548 23.172 41.548 21.06C41.548 19.62 40.972 18.548 39.82 17.844C38.7 17.14 37.068 16.788 34.924 16.788H25.036ZM30.844 42.612C33.884 42.612 36.22 42.052 37.852 40.932C39.516 39.78 40.348 38.148 40.348 36.036C40.348 34.372 39.756 33.188 38.572 32.484C37.42 31.78 35.676 31.428 33.34 31.428H22.108L19.9 42.612H30.844Z" fill="#481C03"/>
<path d="M45.1504 30.3667C45.9443 30.3668 46.647 30.5525 47.2529 30.9282H47.252C47.8569 31.2958 48.3267 31.8161 48.6611 32.4849V32.4859C48.9883 33.1478 49.1504 33.9082 49.1504 34.7632V38.4107H41.1504V34.7632C41.1504 33.9083 41.315 33.1478 41.6494 32.4859L41.7783 32.2417C42.0948 31.6889 42.5178 31.25 43.0469 30.9282C43.6529 30.5524 44.3562 30.3667 45.1504 30.3667ZM45.1504 32.4712C44.4513 32.4712 43.9146 32.6899 43.5225 33.1157L43.5205 33.1177C43.1202 33.5384 42.9131 34.1105 42.9131 34.8511V36.3286H47.3867V34.8511C47.3867 34.1097 47.1826 33.5374 46.7891 33.1167C46.3894 32.6901 45.8491 32.4713 45.1504 32.4712ZM46.7451 23.4458C47.2153 23.4458 47.6478 23.5802 48.0391 23.8462L48.1807 23.9497C48.5014 24.2068 48.7565 24.563 48.9502 25.0103C49.1731 25.5252 49.2822 26.1446 49.2822 26.8628C49.2822 27.4849 49.1993 28.0897 49.0342 28.6753V28.6773C48.8621 29.2535 48.6385 29.7261 48.3604 30.0894L48.2881 30.1841L48.1797 30.1353L46.8369 29.5298L46.6689 29.4536L46.7783 29.3042C47.0092 28.9893 47.1964 28.612 47.3389 28.1704C47.481 27.7299 47.5518 27.2903 47.5518 26.8521C47.5517 26.3574 47.4795 26.0179 47.3555 25.8111L47.3047 25.7388C47.184 25.584 47.0428 25.5171 46.877 25.5171C46.7405 25.5171 46.6326 25.5691 46.543 25.6812L46.5381 25.687C46.4307 25.807 46.3401 25.9704 46.2715 26.1831V26.1851C46.2004 26.3985 46.1207 26.6937 46.0332 27.0728V27.0737C45.8931 27.6637 45.7517 28.1508 45.6094 28.5327C45.4612 28.9305 45.2234 29.2739 44.8975 29.5611L44.8955 29.562C44.5538 29.8549 44.1056 29.9946 43.5664 29.9946C43.0904 29.9946 42.6573 29.8651 42.2725 29.606V29.605C41.8778 29.3441 41.5713 28.9571 41.3496 28.4527V28.4517C41.1267 27.9366 41.0176 27.3175 41.0176 26.5991C41.0176 26.0958 41.0779 25.603 41.1982 25.1216C41.3187 24.6397 41.4932 24.2144 41.7227 23.8472L41.79 23.7398L41.9062 23.7876L43.2598 24.3374L43.418 24.4019L43.333 24.5503C42.9407 25.2423 42.7481 25.9283 42.748 26.6099C42.748 27.0964 42.8276 27.4307 42.9639 27.6362L43.0156 27.7056C43.1417 27.8551 43.2938 27.9233 43.4775 27.9234C43.5822 27.9234 43.6678 27.897 43.7393 27.8482C43.811 27.799 43.8776 27.7207 43.9346 27.605C44.0529 27.3405 44.1758 26.9305 44.2998 26.3687V26.3667C44.4399 25.7767 44.5814 25.2896 44.7236 24.9077C44.8717 24.5105 45.1056 24.1704 45.4248 23.8902C45.7596 23.5888 46.2058 23.4458 46.7451 23.4458ZM49.1504 43.8755L49.0596 43.9146L41.3594 47.2368L41.1504 47.3267V45.0747L41.2412 45.0357L46.4189 42.8296L41.2402 40.5923L41.1504 40.5532V38.4556L41.3594 38.5464L49.0596 41.8794L49.1504 41.9185V43.8755Z" fill="#FE9E45" stroke="white" stroke-width="0.3"/>
<path d="M95.42 29.08C96.62 29.46 97.56 30.1 98.24 31C98.92 31.88 99.26 32.97 99.26 34.27C99.26 36.11 98.54 37.53 97.1 38.53C95.68 39.51 93.6 40 90.86 40H80V19H90.26C92.82 19 94.78 19.49 96.14 20.47C97.52 21.45 98.21 22.78 98.21 24.46C98.21 25.48 97.96 26.39 97.46 27.19C96.98 27.99 96.3 28.62 95.42 29.08ZM84.83 22.66V27.61H89.66C90.86 27.61 91.77 27.4 92.39 26.98C93.01 26.56 93.32 25.94 93.32 25.12C93.32 24.3 93.01 23.69 92.39 23.29C91.77 22.87 90.86 22.66 89.66 22.66H84.83ZM90.5 36.34C91.78 36.34 92.74 36.13 93.38 35.71C94.04 35.29 94.37 34.64 94.37 33.76C94.37 32.02 93.08 31.15 90.5 31.15H84.83V36.34H90.5Z" fill="white"/>
<path d="M119.199 36.1V40H102.939V19H118.809V22.9H107.769V27.46H117.519V31.24H107.769V36.1H119.199Z" fill="white"/>
<path d="M127.416 22.96H120.696V19H138.996V22.96H132.276V40H127.416V22.96Z" fill="white"/>
<path d="M162.68 19L153.59 40H148.79L139.73 19H144.98L151.37 34L157.85 19H162.68Z" fill="#FE9E45"/>
<path d="M163.833 19H173.373C175.653 19 177.663 19.44 179.403 20.32C181.163 21.18 182.523 22.4 183.483 23.98C184.463 25.56 184.953 27.4 184.953 29.5C184.953 31.6 184.463 33.44 183.483 35.02C182.523 36.6 181.163 37.83 179.403 38.71C177.663 39.57 175.653 40 173.373 40H163.833V19ZM173.133 36.01C175.233 36.01 176.903 35.43 178.143 34.27C179.403 33.09 180.033 31.5 180.033 29.5C180.033 27.5 179.403 25.92 178.143 24.76C176.903 23.58 175.233 22.99 173.133 22.99H168.693V36.01H173.133Z" fill="#FE9E45"/>
<path d="M194.918 40.36C193.258 40.36 191.648 40.14 190.088 39.7C188.548 39.24 187.308 38.65 186.368 37.93L188.018 34.27C188.918 34.93 189.988 35.46 191.228 35.86C192.468 36.26 193.708 36.46 194.948 36.46C196.328 36.46 197.348 36.26 198.008 35.86C198.668 35.44 198.998 34.89 198.998 34.21C198.998 33.71 198.798 33.3 198.398 32.98C198.018 32.64 197.518 32.37 196.898 32.17C196.298 31.97 195.478 31.75 194.438 31.51C192.838 31.13 191.528 30.75 190.508 30.37C189.488 29.99 188.608 29.38 187.868 28.54C187.148 27.7 186.788 26.58 186.788 25.18C186.788 23.96 187.118 22.86 187.778 21.88C188.438 20.88 189.428 20.09 190.748 19.51C192.088 18.93 193.718 18.64 195.638 18.64C196.978 18.64 198.288 18.8 199.568 19.12C200.848 19.44 201.968 19.9 202.928 20.5L201.428 24.19C199.488 23.09 197.548 22.54 195.608 22.54C194.248 22.54 193.238 22.76 192.578 23.2C191.938 23.64 191.618 24.22 191.618 24.94C191.618 25.66 191.988 26.2 192.728 26.56C193.488 26.9 194.638 27.24 196.178 27.58C197.778 27.96 199.088 28.34 200.108 28.72C201.128 29.1 201.998 29.7 202.718 30.52C203.458 31.34 203.828 32.45 203.828 33.85C203.828 35.05 203.488 36.15 202.808 37.15C202.148 38.13 201.148 38.91 199.808 39.49C198.468 40.07 196.838 40.36 194.918 40.36Z" fill="#FE9E45"/>
</svg>
