<svg width="25" height="19" viewBox="0 0 25 19" fill="none" xmlns="http://www.w3.org/2000/svg">
<path fill-rule="evenodd" clip-rule="evenodd" d="M22.9163 0C24.0662 0 25 0.9325 25 2.08375V16.6663C25 17.8162 24.0675 18.75 22.9163 18.75H2.08375C0.93375 18.75 0 17.8175 0 16.6663V2.08375C0 0.93375 0.9325 0 2.08375 0H22.9163ZM8.96 11.035L2.8225 17.1H21.9788L15.9075 11.0975L12.5 13.4563L8.96 11.035ZM23.3 5.99L17.305 10.135L23.3 16.055V5.99ZM1.70125 6.06625V15.8612L7.55875 10.0725L1.70125 6.06625ZM22.8962 1.65125H2.1225C2.00843 1.6459 1.89664 1.68436 1.81 1.75875C1.7715 1.79323 1.74178 1.83639 1.7233 1.88465C1.70483 1.93291 1.69812 1.98488 1.70375 2.03625V4.06125L12.5 11.445L23.305 3.98875V2.12375C23.3062 1.95625 23.2675 1.835 23.19 1.75875C23.1515 1.72131 23.1056 1.69238 23.0552 1.67386C23.0048 1.65534 22.9511 1.64764 22.8975 1.65125H22.8962Z" fill="white"/>
</svg>
