<svg width="38" height="37" viewBox="0 0 38 37" fill="none" xmlns="http://www.w3.org/2000/svg">
<path d="M24.375 27.7232C24.0042 27.7232 23.6416 27.8316 23.3333 28.0347C23.025 28.2378 22.7846 28.5264 22.6427 28.8642C22.5008 29.2019 22.4637 29.5735 22.536 29.932C22.6084 30.2905 22.787 30.6198 23.0492 30.8783C23.3114 31.1368 23.6455 31.3128 24.0092 31.3841C24.3729 31.4554 24.7499 31.4188 25.0925 31.279C25.4351 31.1391 25.728 30.9022 25.934 30.5982C26.14 30.2943 26.25 29.937 26.25 29.5714C26.25 29.0813 26.0525 28.6112 25.7008 28.2645C25.3492 27.9179 24.8723 27.7232 24.375 27.7232ZM13.125 27.7232H7.5C7.00272 27.7232 6.52581 27.9179 6.17418 28.2645C5.82254 28.6112 5.625 29.0813 5.625 29.5714C5.625 30.0616 5.82254 30.5317 6.17418 30.8783C6.52581 31.2249 7.00272 31.4196 7.5 31.4196H13.125C13.6223 31.4196 14.0992 31.2249 14.4508 30.8783C14.8025 30.5317 15 30.0616 15 29.5714C15 29.0813 14.8025 28.6112 14.4508 28.2645C14.0992 27.9179 13.6223 27.7232 13.125 27.7232ZM30 27.7232C29.6292 27.7232 29.2666 27.8316 28.9583 28.0347C28.65 28.2378 28.4096 28.5264 28.2677 28.8642C28.1258 29.2019 28.0887 29.5735 28.161 29.932C28.2334 30.2905 28.4119 30.6198 28.6742 30.8783C28.9364 31.1368 29.2705 31.3128 29.6342 31.3841C29.9979 31.4554 30.3749 31.4188 30.7175 31.279C31.0601 31.1391 31.353 30.9022 31.559 30.5982C31.765 30.2943 31.875 29.937 31.875 29.5714C31.875 29.0813 31.6775 28.6112 31.3258 28.2645C30.9742 27.9179 30.4973 27.7232 30 27.7232ZM24.375 16.6339C24.0042 16.6339 23.6416 16.7423 23.3333 16.9454C23.025 17.1485 22.7846 17.4371 22.6427 17.7749C22.5008 18.1126 22.4637 18.4842 22.536 18.8427C22.6084 19.2012 22.787 19.5306 23.0492 19.789C23.3114 20.0475 23.6455 20.2235 24.0092 20.2948C24.3729 20.3662 24.7499 20.3296 25.0925 20.1897C25.4351 20.0498 25.728 19.8129 25.934 19.509C26.14 19.205 26.25 18.8477 26.25 18.4821C26.25 17.992 26.0525 17.5219 25.7008 17.1753C25.3492 16.8287 24.8723 16.6339 24.375 16.6339ZM13.125 16.6339H7.5C7.00272 16.6339 6.52581 16.8287 6.17418 17.1753C5.82254 17.5219 5.625 17.992 5.625 18.4821C5.625 18.9723 5.82254 19.4424 6.17418 19.789C6.52581 20.1356 7.00272 20.3304 7.5 20.3304H13.125C13.6223 20.3304 14.0992 20.1356 14.4508 19.789C14.8025 19.4424 15 18.9723 15 18.4821C15 17.992 14.8025 17.5219 14.4508 17.1753C14.0992 16.8287 13.6223 16.6339 13.125 16.6339ZM30 5.54464C29.6292 5.54464 29.2666 5.65304 28.9583 5.85612C28.65 6.05921 28.4096 6.34786 28.2677 6.68558C28.1258 7.02329 28.0887 7.39491 28.161 7.75343C28.2334 8.11195 28.4119 8.44127 28.6742 8.69974C28.9364 8.95822 29.2705 9.13425 29.6342 9.20556C29.9979 9.27687 30.3749 9.24027 30.7175 9.10038C31.0601 8.9605 31.353 8.72361 31.559 8.41967C31.765 8.11573 31.875 7.7584 31.875 7.39286C31.875 6.90268 31.6775 6.43258 31.3258 6.08597C30.9742 5.73937 30.4973 5.54464 30 5.54464ZM30 16.6339C29.6292 16.6339 29.2666 16.7423 28.9583 16.9454C28.65 17.1485 28.4096 17.4371 28.2677 17.7749C28.1258 18.1126 28.0887 18.4842 28.161 18.8427C28.2334 19.2012 28.4119 19.5306 28.6742 19.789C28.9364 20.0475 29.2705 20.2235 29.6342 20.2948C29.9979 20.3662 30.3749 20.3296 30.7175 20.1897C31.0601 20.0498 31.353 19.8129 31.559 19.509C31.765 19.205 31.875 18.8477 31.875 18.4821C31.875 17.992 31.6775 17.5219 31.3258 17.1753C30.9742 16.8287 30.4973 16.6339 30 16.6339ZM37.5 5.54464C37.5 4.07411 36.9074 2.66381 35.8525 1.62399C34.7976 0.584166 33.3668 0 31.875 0H5.625C4.13316 0 2.70242 0.584166 1.64752 1.62399C0.592632 2.66381 0 4.07411 0 5.54464V9.24107C0.0082699 10.6089 0.529145 11.9254 1.4625 12.9375C0.529145 13.9497 0.0082699 15.2661 0 16.6339V20.3304C0.0082699 21.6981 0.529145 23.0146 1.4625 24.0268C0.529145 25.0389 0.0082699 26.3554 0 27.7232V31.4196C0 32.8902 0.592632 34.3005 1.64752 35.3403C2.70242 36.3801 4.13316 36.9643 5.625 36.9643H31.875C33.3668 36.9643 34.7976 36.3801 35.8525 35.3403C36.9074 34.3005 37.5 32.8902 37.5 31.4196V27.7232C37.4917 26.3554 36.9709 25.0389 36.0375 24.0268C36.9709 23.0146 37.4917 21.6981 37.5 20.3304V16.6339C37.4917 15.2661 36.9709 13.9497 36.0375 12.9375C36.9709 11.9254 37.4917 10.6089 37.5 9.24107V5.54464ZM33.75 31.4196C33.75 31.9098 33.5525 32.3799 33.2008 32.7265C32.8492 33.0731 32.3723 33.2679 31.875 33.2679H5.625C5.12772 33.2679 4.65081 33.0731 4.29918 32.7265C3.94754 32.3799 3.75 31.9098 3.75 31.4196V27.7232C3.75 27.233 3.94754 26.7629 4.29918 26.4163C4.65081 26.0697 5.12772 25.875 5.625 25.875H31.875C32.3723 25.875 32.8492 26.0697 33.2008 26.4163C33.5525 26.7629 33.75 27.233 33.75 27.7232V31.4196ZM33.75 20.3304C33.75 20.8205 33.5525 21.2906 33.2008 21.6372C32.8492 21.9839 32.3723 22.1786 31.875 22.1786H5.625C5.12772 22.1786 4.65081 21.9839 4.29918 21.6372C3.94754 21.2906 3.75 20.8205 3.75 20.3304V16.6339C3.75 16.1438 3.94754 15.6737 4.29918 15.327C4.65081 14.9804 5.12772 14.7857 5.625 14.7857H31.875C32.3723 14.7857 32.8492 14.9804 33.2008 15.327C33.5525 15.6737 33.75 16.1438 33.75 16.6339V20.3304ZM33.75 9.24107C33.75 9.73125 33.5525 10.2013 33.2008 10.548C32.8492 10.8946 32.3723 11.0893 31.875 11.0893H5.625C5.12772 11.0893 4.65081 10.8946 4.29918 10.548C3.94754 10.2013 3.75 9.73125 3.75 9.24107V5.54464C3.75 5.05447 3.94754 4.58437 4.29918 4.23776C4.65081 3.89115 5.12772 3.69643 5.625 3.69643H31.875C32.3723 3.69643 32.8492 3.89115 33.2008 4.23776C33.5525 4.58437 33.75 5.05447 33.75 5.54464V9.24107ZM24.375 5.54464C24.0042 5.54464 23.6416 5.65304 23.3333 5.85612C23.025 6.05921 22.7846 6.34786 22.6427 6.68558C22.5008 7.02329 22.4637 7.39491 22.536 7.75343C22.6084 8.11195 22.787 8.44127 23.0492 8.69974C23.3114 8.95822 23.6455 9.13425 24.0092 9.20556C24.3729 9.27687 24.7499 9.24027 25.0925 9.10038C25.4351 8.9605 25.728 8.72361 25.934 8.41967C26.14 8.11573 26.25 7.7584 26.25 7.39286C26.25 6.90268 26.0525 6.43258 25.7008 6.08597C25.3492 5.73937 24.8723 5.54464 24.375 5.54464ZM13.125 5.54464H7.5C7.00272 5.54464 6.52581 5.73937 6.17418 6.08597C5.82254 6.43258 5.625 6.90268 5.625 7.39286C5.625 7.88303 5.82254 8.35314 6.17418 8.69974C6.52581 9.04635 7.00272 9.24107 7.5 9.24107H13.125C13.6223 9.24107 14.0992 9.04635 14.4508 8.69974C14.8025 8.35314 15 7.88303 15 7.39286C15 6.90268 14.8025 6.43258 14.4508 6.08597C14.0992 5.73937 13.6223 5.54464 13.125 5.54464Z" fill="white"/>
</svg>
