<svg width="765" height="668" viewBox="0 0 765 668" fill="none" xmlns="http://www.w3.org/2000/svg">
<path d="M1.85885 0.168701C-2.14115 11.3354 2.51637 43.1687 11.8589 65.1687C27.3589 101.669 68.5119 128.53 98.8587 135.169C146.859 145.669 292.839 118.354 380.359 135.169C431.359 144.967 435.026 184.809 399.859 205.169C361.859 227.169 332.359 236.669 320.859 291.169C309.359 345.669 409.859 397.169 643.859 397.169C718.859 397.169 698.699 449.169 681.859 470.169C639.359 523.169 503.859 513.169 481.859 566.169C459.859 619.169 519.322 646.716 571.359 655.669C617.859 663.669 716.859 662.169 764.859 667.169" stroke="#838383" stroke-dasharray="20 20"/>
</svg>
