<svg width="100" height="100" viewBox="0 0 100 100" fill="none" xmlns="http://www.w3.org/2000/svg">
<circle cx="50" cy="50" r="49" stroke="#FE9E45" stroke-width="2"/>
<path d="M49.9999 20.8333C33.9174 20.8333 20.8333 33.9174 20.8333 49.9999V62.0837C20.8333 65.0703 23.4495 67.4999 26.6666 67.4999H29.5833C30.3568 67.4999 31.0987 67.1926 31.6456 66.6457C32.1926 66.0987 32.4999 65.3568 32.4999 64.5833V49.5828C32.4999 48.8093 32.1926 48.0674 31.6456 47.5204C31.0987 46.9735 30.3568 46.6662 29.5833 46.6662H26.9349C28.5566 35.3787 38.2691 26.6666 49.9999 26.6666C61.7308 26.6666 71.4433 35.3787 73.0649 46.6662H70.4166C69.643 46.6662 68.9012 46.9735 68.3542 47.5204C67.8072 48.0674 67.4999 48.8093 67.4999 49.5828V67.4999C67.4999 70.717 64.8837 73.3333 61.6666 73.3333H55.8333V70.4166H44.1666V79.1666H61.6666C68.1008 79.1666 73.3333 73.9341 73.3333 67.4999C76.5503 67.4999 79.1666 65.0703 79.1666 62.0837V49.9999C79.1666 33.9174 66.0824 20.8333 49.9999 20.8333Z" fill="white"/>
</svg>
