<svg width="100" height="100" viewBox="0 0 100 100" fill="none" xmlns="http://www.w3.org/2000/svg">
<circle cx="50" cy="50" r="49" stroke="#FE9E45" stroke-width="2"/>
<path d="M49.9999 47.0833C53.8677 47.0833 57.577 48.6197 60.3119 51.3546C63.0468 54.0895 64.5833 57.7988 64.5833 61.6666V79.1666H35.4166V61.6666C35.4166 57.7988 36.953 54.0895 39.6879 51.3546C42.4229 48.6197 46.1322 47.0833 49.9999 47.0833ZM30.4233 55.8508C29.9591 57.4164 29.6849 59.0322 29.6066 60.6633L29.5833 61.6666V79.1666H20.8333V66.0416C20.8327 63.5262 21.7608 61.0991 23.4397 59.2259C25.1185 57.3528 27.4299 56.1654 29.9303 55.8916L30.4262 55.8508H30.4233ZM69.5766 55.8508C72.1722 56.009 74.6096 57.1515 76.3917 59.0452C78.1738 60.9389 79.1662 63.4412 79.1666 66.0416V79.1666H70.4166V61.6666C70.4166 59.6453 70.1249 57.6941 69.5766 55.8508ZM31.0416 38.3333C32.9755 38.3333 34.8301 39.1015 36.1976 40.4689C37.565 41.8364 38.3333 43.6911 38.3333 45.6249C38.3333 47.5588 37.565 49.4135 36.1976 50.7809C34.8301 52.1484 32.9755 52.9166 31.0416 52.9166C29.1077 52.9166 27.2531 52.1484 25.8856 50.7809C24.5181 49.4135 23.7499 47.5588 23.7499 45.6249C23.7499 43.6911 24.5181 41.8364 25.8856 40.4689C27.2531 39.1015 29.1077 38.3333 31.0416 38.3333ZM68.9583 38.3333C70.8921 38.3333 72.7468 39.1015 74.1142 40.4689C75.4817 41.8364 76.2499 43.6911 76.2499 45.6249C76.2499 47.5588 75.4817 49.4135 74.1142 50.7809C72.7468 52.1484 70.8921 52.9166 68.9583 52.9166C67.0244 52.9166 65.1697 52.1484 63.8023 50.7809C62.4348 49.4135 61.6666 47.5588 61.6666 45.6249C61.6666 43.6911 62.4348 41.8364 63.8023 40.4689C65.1697 39.1015 67.0244 38.3333 68.9583 38.3333ZM49.9999 20.8333C53.0941 20.8333 56.0616 22.0624 58.2495 24.2503C60.4374 26.4383 61.6666 29.4057 61.6666 32.4999C61.6666 35.5941 60.4374 38.5616 58.2495 40.7495C56.0616 42.9374 53.0941 44.1666 49.9999 44.1666C46.9057 44.1666 43.9383 42.9374 41.7503 40.7495C39.5624 38.5616 38.3333 35.5941 38.3333 32.4999C38.3333 29.4057 39.5624 26.4383 41.7503 24.2503C43.9383 22.0624 46.9057 20.8333 49.9999 20.8333Z" fill="white"/>
</svg>
