<svg width="100" height="100" viewBox="0 0 100 100" fill="none" xmlns="http://www.w3.org/2000/svg">
<circle cx="50" cy="50" r="49" stroke="#FE9E45" stroke-width="2"/>
<path d="M47.7833 46.4806C54.7206 46.4806 60.3444 40.8568 60.3444 33.9195C60.3444 26.9822 54.7206 21.3584 47.7833 21.3584C40.846 21.3584 35.2222 26.9822 35.2222 33.9195C35.2222 40.8568 40.846 46.4806 47.7833 46.4806Z" fill="white"/>
<path d="M55.8333 69.4446H69.4444V72.1668H55.8333V69.4446Z" fill="white"/>
<path d="M44.1666 73.3333V79.1666C44.1666 79.6823 44.3715 80.1769 44.7362 80.5416C45.1008 80.9062 45.5954 81.1111 46.1111 81.1111H79.1666C79.6823 81.1111 80.1769 80.9062 80.5416 80.5416C80.9062 80.1769 81.1111 79.6823 81.1111 79.1666V59.7222C81.1111 59.2065 80.9062 58.7119 80.5416 58.3473C80.1769 57.9826 79.6823 57.7777 79.1666 57.7777H65.5555V54.9194C65.5555 54.4037 65.3507 53.9091 64.986 53.5445C64.6214 53.1798 64.1268 52.975 63.6111 52.975C63.0954 52.975 62.6008 53.1798 62.2362 53.5445C61.8715 53.9091 61.6666 54.4037 61.6666 54.9194V57.7777H57.7778V50.8166C54.4735 50.277 51.1313 50.0039 47.7833 50C40.3999 49.9686 33.0991 51.5548 26.3944 54.6472C25.2909 55.1679 24.36 55.9943 23.712 57.0283C23.0641 58.0622 22.7263 59.2604 22.7389 60.4805V73.3333H44.1666ZM77.2222 77.2222H48.0555V61.6666H61.6666V62.4833C61.6666 62.999 61.8715 63.4936 62.2362 63.8582C62.6008 64.2229 63.0954 64.4277 63.6111 64.4277C64.1268 64.4277 64.6214 64.2229 64.986 63.8582C65.3507 63.4936 65.5555 62.999 65.5555 62.4833V61.6666H77.2222V77.2222Z" fill="white"/>
</svg>
