<svg width="100" height="100" viewBox="0 0 100 100" fill="none" xmlns="http://www.w3.org/2000/svg">
<circle cx="50" cy="50" r="49" stroke="#FE9E45" stroke-width="2"/>
<path d="M65.5556 41.25C65.5556 29.1682 54.2389 19.375 40.2778 19.375C26.3167 19.375 15 29.1682 15 41.25C15 45.9354 16.7172 50.2666 19.6144 53.8254C17.9908 57.9598 15.3063 61.2328 15.2674 61.2793C15.1365 61.4343 15.0489 61.6292 15.0155 61.8396C14.9821 62.0501 15.0042 62.267 15.0792 62.4634C15.1543 62.6599 15.2788 62.8272 15.4376 62.9448C15.5963 63.0624 15.7822 63.1251 15.9722 63.125C20.4177 63.125 24.1061 61.4502 26.7554 59.7098C30.6686 61.8617 35.2976 63.125 40.2778 63.125C54.2389 63.125 65.5556 53.3318 65.5556 41.25ZM38.3333 54.375V52.1479C36.9613 52.0686 35.6269 51.5299 34.521 50.5961C34.047 50.1955 34.0227 49.3971 34.4517 48.9363L35.8797 47.4037C36.2163 47.0428 36.717 47.0264 37.1108 47.3039C37.5811 47.6348 38.1146 47.8125 38.6687 47.8125H42.0849C42.8748 47.8125 43.5189 47.0031 43.5189 46.0092C43.5189 45.1957 43.0802 44.4793 42.4531 44.2688L36.9844 42.423C34.7252 41.6602 33.1465 39.2211 33.1465 36.4908C33.1465 33.1385 35.4616 30.415 38.3321 30.3289V28.125C38.3321 27.5207 38.7672 27.0312 39.3043 27.0312H41.2488C41.7859 27.0312 42.221 27.5207 42.221 28.125V30.3521C43.5931 30.4314 44.9274 30.9688 46.0333 31.9039C46.5073 32.3045 46.5316 33.1029 46.1026 33.5637L44.6747 35.0963C44.338 35.4572 43.8373 35.4736 43.4436 35.1961C42.9733 34.8639 42.4398 34.6875 41.8856 34.6875H38.4694C37.6795 34.6875 37.0354 35.4969 37.0354 36.4908C37.0354 37.3043 37.4741 38.0207 38.1012 38.2312L43.57 40.077C45.8292 40.8398 47.4078 43.2789 47.4078 46.0092C47.4078 49.3629 45.0927 52.085 42.2222 52.1711V54.375C42.2222 54.9793 41.7872 55.4688 41.25 55.4688H39.3056C38.7684 55.4688 38.3333 54.9793 38.3333 54.375ZM80.3832 71.3268C83.2828 67.768 85 63.4354 85 58.75C85 49.598 78.4995 41.7695 69.2828 38.5061C69.3873 39.4084 69.4444 40.323 69.4444 41.25C69.4444 55.7244 56.3608 67.5 40.2778 67.5C38.9677 67.5 37.6868 67.3947 36.4217 67.243C40.2535 75.1057 49.2429 80.625 59.7222 80.625C64.7024 80.625 69.3314 79.3617 73.2446 77.2098C75.8939 78.9502 79.5823 80.625 84.0278 80.625C84.4167 80.625 84.7679 80.3639 84.9198 79.9633C85.0741 79.5613 85 79.0965 84.7314 78.7779C84.6937 78.7328 82.0068 75.4639 80.3832 71.3268Z" fill="white"/>
</svg>
