<svg width="100" height="100" viewBox="0 0 100 100" fill="none" xmlns="http://www.w3.org/2000/svg">
<circle cx="50" cy="50" r="49" stroke="#FE9E45" stroke-width="2"/>
<path d="M23.75 28.4983L50.0131 20.8333L76.25 28.4983V44.2162C76.25 60.7362 65.6771 73.9443 50.0044 79.1666C34.3273 73.9458 23.75 60.7333 23.75 44.2089V28.4983Z" stroke="white" stroke-width="4" stroke-linejoin="round"/>
<path d="M64.3715 43.1433C64.3585 42.9734 64.3118 42.8081 64.2341 42.6576C64.1564 42.5072 64.0494 42.3749 63.92 42.269C63.7905 42.163 63.6412 42.0857 63.4815 42.0419C63.3217 41.9981 63.1549 41.9887 62.9915 42.0143C60.3785 42.4443 54.2525 44.9372 50 44.9372C45.7475 44.9372 39.6215 42.4443 37.0085 42.0143C36.8452 41.9885 36.6784 41.9977 36.5187 42.0413C36.3589 42.0849 36.2096 42.162 36.0801 42.2679C35.9506 42.3737 35.8436 42.5059 35.7659 42.6562C35.6882 42.8066 35.6414 42.9719 35.6285 43.1417C35.4155 45.511 35 51.8192 35 52.7749C35 54.0585 40.208 57 44 57C47.678 57 48.425 52.7749 50 52.7749C51.575 52.7749 52.322 57 56 57C59.792 57 65 54.0585 65 52.7749C65 51.8192 64.5845 45.511 64.3715 43.1433ZM46.49 50.6902C45.9605 51.182 44.4875 52.345 42.6935 51.9816C40.8995 51.6181 39.815 49.9355 39.4445 49.2628C39.4006 49.1853 39.3833 49.0948 39.3953 49.0059C39.4072 48.917 39.4478 48.8348 39.5105 48.7726C40.04 48.2808 41.513 47.1178 43.3085 47.4812C45.1025 47.8447 46.187 49.5273 46.5575 50.2C46.6009 50.2778 46.6179 50.3683 46.6056 50.4571C46.5934 50.5459 46.5527 50.628 46.49 50.6902ZM60.5555 49.2628C60.1865 49.9371 59.102 51.6181 57.3065 51.9816C55.5125 52.345 54.038 51.182 53.51 50.6902C53.4473 50.628 53.4066 50.5459 53.3944 50.4571C53.3821 50.3683 53.3991 50.2778 53.4425 50.2C53.8115 49.5257 54.896 47.8447 56.6915 47.4812C58.4855 47.1178 59.96 48.2808 60.488 48.7726C60.5512 48.8345 60.5922 48.9166 60.6044 49.0056C60.6167 49.0946 60.5994 49.1852 60.5555 49.2628Z" fill="white"/>
</svg>
